HIERARCHY
ROOT ui
{
	 OFFSET 0 0 0
	 CHANNELS 3 XPosition YPosition Z Position
	 EndSite
	 {
	 OFFSET 0 -1 0
	 }
}
ROOT li
{
	 OFFSET 0 0 0
	 CHANNELS 3 XPosition YPosition Z Position
	 EndSite
	 {
	 OFFSET 0 -1 0
	 }
}
ROOT ul
{
	 OFFSET 0 0 0
	 CHANNELS 3 XPosition YPosition Z Position
	 EndSite
	 {
	 OFFSET 0 -1 0
	 }
}
ROOT ll
{
	 OFFSET 0 0 0
	 CHANNELS 3 XPosition YPosition Z Position
	 EndSite
	 {
	 OFFSET 0 -1 0
	 }
}
ROOT tt
{
	 OFFSET 0 0 0
	 CHANNELS 3 XPosition YPosition Z Position
	 EndSite
	 {
	 OFFSET 0 -1 0
	 }
}
ROOT tb
{
	 OFFSET 0 0 0
	 CHANNELS 3 XPosition YPosition Z Position
	 EndSite
	 {
	 OFFSET 0 -1 0
	 }
}
ROOT td
{
	 OFFSET 0 0 0
	 CHANNELS 3 XPosition YPosition Z Position
	 EndSite
	 {
	 OFFSET 0 -1 0
	 }
}
ROOT v
{
	 OFFSET 0 0 0
	 CHANNELS 3 XPosition YPosition Z Position
	 EndSite
	 {
	 OFFSET 0 -1 0
	 }
}
ROOT bn
{
	 OFFSET 0 0 0
	 CHANNELS 3 XPosition YPosition Z Position
	 EndSite
	 {
	 OFFSET 0 -1 0
	 }
}
MOTION
Frames: 21
Frame Time: 0.002
0.0061523098945617674	7.280610203742981E-4	0		0.70900537109375	-2.808155517578125	0		-1.0508558349609376	-0.05838846206665039	0		-0.392299560546875	-2.487563232421875	0		1.3122705078125	-0.9990199584960937	0		2.886534423828125	-0.3946178283691406	0		4.30905615234375	0.22806756591796876	0		5.6264189453125	0.10925003051757813	0		-0.27191522216796876	5.9185771484375	0		
0.017334033966064453	0.011094168663024902	0		0.6907840576171875	-2.797450927734375	0		-1.0307596435546875	-0.053005462646484376	0		-0.39641537475585936	-2.472912109375	0		1.3571519775390626	-0.9993577270507813	0		2.882918701171875	-0.3674426879882812	0		4.3190888671875	0.22582774353027343	0		5.63155615234375	0.11489459228515625	0		-0.23695591735839844	5.923634765625	0		
0.011296675682067872	0.003725006103515625	0		0.7294166870117188	-2.7996103515625	0		-1.0487896728515624	-0.05903532028198242	0		-0.4337256774902344	-2.47374560546875	0		1.3491181640625	-0.9968961791992188	0		2.875763916015625	-0.3792212219238281	0		4.31911328125	0.2197281188964844	0		5.62853369140625	0.1066464614868164	0		-0.25114561462402346	5.91444140625	0		
-0.04264546585083008	0.001108711004257202	0		0.6751331176757812	-2.79733447265625	0		-1.047701416015625	-0.059344753265380856	0		-0.36509912109375	-2.481198486328125	0		1.3500662841796875	-0.9975638427734375	0		2.869944580078125	-0.37100973510742186	0		4.304353515625	0.22586349487304688	0		5.6147880859375	0.11457050323486329	0		-0.11684020233154296	5.93396728515625	0		
0.0104378662109375	-0.0011526069641113281	0		0.7267240600585938	-2.804685791015625	0		-1.04660498046875	-0.05964495086669922	0		-0.4343059387207031	-2.47750634765625	0		1.3100755615234374	-0.994578857421875	0		2.873760009765625	-0.38693505859375	0		4.31425634765625	0.20963204956054687	0		5.6217685546875	0.104191162109375	0		-0.23201400756835938	5.9243583984375	0		
-0.06642620849609375	0.0016327990293502808	0		0.6884016723632812	-2.80561865234375	0		-1.045518798828125	-0.05993610382080078	0		-0.38671771240234376	-2.487626220703125	0		1.3519739990234374	-0.9988575439453125	0		2.874208984375	-0.3617815856933594	0		4.30849267578125	0.21567381286621093	0		5.62698828125	0.10987006378173828	0		-0.23007669067382813	5.92294970703125	0		
0.01871463394165039	0.004876521110534668	0		0.6921436767578125	-2.80219189453125	0		-1.0312821044921876	-0.04942649841308594	0		-0.42876629638671876	-2.473318359375	0		1.3150059814453126	-0.9928717651367187	0		2.871737060546875	-0.3935611572265625	0		4.315705078125	0.22154534912109375	0		5.6280751953125	0.10865325164794921	0		-0.26126666259765624	5.91707861328125	0		
-0.06924748992919921	0.004888487815856934	0		0.6798928833007812	-2.797489990234375	0		-0.9684473876953125	-0.06269515609741211	0		-0.3642236633300781	-2.484699951171875	0		1.35381396484375	-1.0000697021484375	0		2.895204833984375	-0.36471511840820314	0		4.3175517578125	0.20654096984863282	0		5.6291318359375	0.10748773193359375	0		-0.2263420867919922	5.922169921875	0		
0.014656846046447753	-0.0028418240547180176	0		0.7044696044921875	-2.8033603515625	0		-1.042417724609375	-0.06075912475585937	0		-0.43143402099609374	-2.478953369140625	0		1.3547000732421874	-1.0006373901367187	0		2.892073974609375	-0.37141067504882813	0		4.3257177734375	0.2134873046875	0		5.63015673828125	0.10638377380371093	0		-0.10740896606445313	5.9319072265625	0		
0.015642696380615235	-0.0032261359691619874	0		0.7051315307617188	-2.803824462890625	0		-0.9664647827148437	-0.06324227905273437	0		-0.3669058837890625	-2.49032666015625	0		1.355570556640625	-1.0011766967773437	0		2.850957763671875	-0.37544338989257814	0		4.31959912109375	0.2047194061279297	0		5.62704150390625	0.098416015625	0		-0.10573667907714844	5.931537109375	0		
0.016609418869018556	-0.00359525990486145	0		0.6917405395507813	-2.8080361328125	0		-1.033560791015625	-0.06639337158203125	0		-0.42119287109375	-2.48975439453125	0		1.318535888671875	-0.9950645751953126	0		2.883586181640625	-0.39463214111328127	0		4.31857177734375	0.20293136596679687	0		5.627986328125	0.09545808410644531	0		-0.22034439086914062	5.92008349609375	0		
0.027740468978881837	0.0068849120140075685	0		0.6975261840820313	-2.8025361328125	0		-1.0204358520507812	-0.05584741592407227	0		-0.38246420288085936	-2.489693115234375	0		1.3654534912109375	-0.9922991943359375	0		2.881143798828125	-0.3561946105957031	0		4.33054052734375	0.20199203491210938	0		5.6379453125	0.09442859649658203	0		-0.2188363037109375	5.91975244140625	0		
0.024609752655029297	0.0026135029792785642	0		0.6843126831054688	-2.79769873046875	0		-1.0386029052734376	-0.06178305435180664	0		-0.4306138000488281	-2.4821865234375	0		1.3602069091796876	-0.9986482543945312	0		2.86860302734375	-0.3835506591796875	0		4.33350830078125	0.20226333618164063	0		5.6240390625	0.10287186431884765	0		-0.23355731201171875	5.91070068359375	0		
0.025520112991333006	0.0022917909622192385	0		0.7079021606445313	-2.80544970703125	0		-0.9627241821289062	-0.06427599334716796	0		-0.3979696350097656	-2.48800732421875	0		1.35514599609375	-0.9929669799804688	0		2.8757509765625	-0.3681788024902344	0		4.33133349609375	0.19568270874023438	0		5.63083935546875	0.09504890441894531	0		-0.09987462615966797	5.9301982421875	0		
-0.05767784881591797	-0.0016112300157546998	0		0.6826593017578125	-2.802363525390625	0		-1.0527081298828125	-0.05500398254394531	0		-0.43525830078125	-2.4886533203125	0		1.35595947265625	-0.9933539428710938	0		2.882468017578125	-0.3767571105957031	0		4.30922216796875	0.19549917602539063	0		5.6226865234375	0.09255303192138672	0		-0.09864112854003906	5.92989990234375	0		
0.02110148048400879	-0.005205091953277588	0		0.6833431396484375	-2.8026884765625	0		-1.0290911865234376	-0.06762560272216797	0		-0.43252560424804687	-2.4869560546875	0		1.324721435546875	-0.9941763305664062	0		2.878591796875	-0.3581108093261719	0		4.3300361328125	0.19365830993652344	0		5.6235146484375	0.0919813461303711	0		-0.21470552062988282	5.9195751953125	0		
-0.0539061393737793	0.008790512084960938	0		0.6890938720703125	-2.797078369140625	0		-1.035245361328125	-0.06274493026733398	0		-0.429828857421875	-2.48525	0		1.363573974609375	-0.9871463623046876	0		2.878156494140625	-0.36948602294921873	0		4.31904443359375	0.20740577697753906	0		5.62256787109375	0.10850839996337891	0		-0.21368663024902343	5.92030615234375	0		
0.028678831100463868	0.001148411989212036	0		0.73752734375	-2.808171630859375	0		-0.9595775756835937	-0.06523886108398437	0		-0.43124386596679687	-2.4874677734375	0		1.323279296875	-0.9847657470703125	0		2.884127197265625	-0.3529292907714844	0		4.32662939453125	0.1998865509033203	0		5.64297998046875	0.09073057556152343	0		-0.21281842041015625	5.91904736328125	0		
-0.054765171051025394	-0.002691467046737671	0		0.675315673828125	-2.794384765625	0		-0.9589508666992187	-0.06547045135498047	0		-0.4007978515625	-2.495216552734375	0		1.3587271728515624	-0.9946407470703125	0		2.861666015625	-0.3578656311035156	0		4.3113994140625	0.2077955780029297	0		5.62876416015625	0.09959080505371094	0		-0.094861572265625	5.9288251953125	0		
0.023750205993652344	-0.006251295089721679	0		0.7095858154296875	-2.8092138671875	0		-1.0492440185546874	-0.05616619491577148	0		-0.4342261657714844	-2.491882568359375	0		1.3124283447265626	-0.985119384765625	0		2.862219970703125	-0.35816192626953125	0		4.3168447265625	0.20039044189453126	0		5.6261748046875	0.09029763793945313	0		-0.22654908752441405	5.90881005859375	0		
-0.04965837860107422	-2.4199800193309783E-4	0		0.6622236938476562	-2.79865234375	0		-1.032868408203125	-0.06366071701049805	0		-0.4229134216308594	-2.5012998046875	0		1.3628045654296874	-0.9922166137695313	0		2.87642333984375	-0.3756690368652344	0		4.32630859375	0.19794781494140626	0		5.639771484375	0.09577040100097656	0		-0.20983078002929687	5.91730322265625	0		
